<?xml version="1.0" encoding="utf-8"?>
<svg fill="red" height="30px" width="30px" viewBox="0 0 30 30" xmlns="http://www.w3.org/2000/svg"><path d="M 7.975 2 c -2.235 0.116 -4.365 1.203 -5.82 2.89 C 0.7 6.57 0 8.786 0 11 c 0 1.938 0.697 3.816 1.646 5.46 c 0.95 1.644 2.19 3.077 3.5 4.394 c 2.824 2.833 6.08 5.232 9.622 7.09 c 0.145 0.076 0.32 0.076 0.464 0 c 3.543 -1.858 6.798 -4.257 9.622 -7.09 c 1.31 -1.317 2.55 -2.75 3.5 -4.393 C 29.304 14.817 30 12.94 30 11 c 0 -2.22 -0.7 -4.428 -2.154 -6.11 C 26.39 3.202 24.26 2.115 22.026 2 c -1.516 -0.078 -3.045 0.286 -4.362 1.04 c -1.097 0.626 -1.975 1.558 -2.664 2.614 c -0.69 -1.056 -1.567 -1.988 -2.664 -2.615 C 11.02 2.285 9.49 1.92 7.976 2 z z"/></svg>
